/* XPM */
static char * help_xpm[] = {
"24 24 339 2",
"  	c None",
". 	c #12293F",
"+ 	c #E0EEFB",
"@ 	c #BFE1F8",
"# 	c #B6DEF7",
"$ 	c #C3E3F9",
"% 	c #C3E2F9",
"& 	c #BFE0F8",
"* 	c #B9DCF8",
"= 	c #B3D8F7",
"- 	c #ACD4F7",
"; 	c #A3CFF6",
"> 	c #9AC9F5",
", 	c #92C4F2",
"' 	c #8CC0F1",
") 	c #88BDEE",
"! 	c #85BAEB",
"~ 	c #84B8E9",
"{ 	c #73ACE1",
"] 	c #2A5E8F",
"^ 	c #CFE2F5",
"/ 	c #78C4F2",
"( 	c #79C5F1",
"_ 	c #8BCBF3",
": 	c #9FD3F5",
"< 	c #AFDAF7",
"[ 	c #B7DDF7",
"} 	c #D3EAFA",
"| 	c #E9F4FD",
"1 	c #FFFFFF",
"2 	c #EBF5FD",
"3 	c #D1E7FB",
"4 	c #ACD3F7",
"5 	c #76B5F1",
"6 	c #6AAEED",
"7 	c #61A7EA",
"8 	c #5EA5E7",
"9 	c #5AA1E1",
"0 	c #599FDF",
"a 	c #4893D8",
"b 	c #387FC2",
"c 	c #69BDEF",
"d 	c #70BFF0",
"e 	c #8ACAF3",
"f 	c #B0DAF8",
"g 	c #EFF7FD",
"h 	c #D2E7FA",
"i 	c #5FA7EC",
"j 	c #3F8FD9",
"k 	c #3D8BD5",
"l 	c #3E8CD5",
"m 	c #3E8ED7",
"n 	c #3C86CC",
"o 	c #3476B4",
"p 	c #99C5ED",
"q 	c #6EBDF0",
"r 	c #79C2F1",
"s 	c #91CCF4",
"t 	c #A1D3F6",
"u 	c #EEF7FD",
"v 	c #E6F0FA",
"w 	c #4382BF",
"x 	c #367ABA",
"y 	c #3982C6",
"z 	c #3B88CE",
"A 	c #3B85CA",
"B 	c #3476B3",
"C 	c #8ABCEA",
"D 	c #70BDF0",
"E 	c #79C1F2",
"F 	c #8CC9F3",
"G 	c #BDE0F8",
"H 	c #8497A9",
"I 	c #667B8D",
"J 	c #5C7B96",
"K 	c #90B2D0",
"L 	c #8DACC8",
"M 	c #2C6497",
"N 	c #3272AD",
"O 	c #3982C7",
"P 	c #3375B3",
"Q 	c #6FBDF0",
"R 	c #6EBCF0",
"S 	c #70BBF1",
"T 	c #7ABFF2",
"U 	c #D0E8FA",
"V 	c #29343E",
"W 	c #102334",
"X 	c #20476B",
"Y 	c #3374B0",
"Z 	c #8DC1F2",
"` 	c #224D76",
" .	c #2B6194",
"..	c #3474B2",
"+.	c #3375B1",
"@.	c #6EBBF0",
"#.	c #69B7F0",
"$.	c #62B3EF",
"%.	c #5EB1EF",
"&.	c #0B1824",
"*.	c #1C3F5E",
"=.	c #3374B1",
"-.	c #4C9FEC",
";.	c #61A9EC",
">.	c #193956",
",.	c #24527E",
"'.	c #306DA6",
").	c #377CBD",
"!.	c #6EB9F0",
"~.	c #60B2EF",
"{.	c #50A9EE",
"].	c #469FE5",
"^.	c #93BAD9",
"/.	c #8AA3B9",
"(.	c #81929F",
"_.	c #707E89",
":.	c #377CBC",
"<.	c #5FA9EF",
"[.	c #7CB8F0",
"}.	c #89BEF0",
"|.	c #122A3F",
"1.	c #20496F",
"2.	c #2E699F",
"3.	c #377ABB",
"4.	c #6CB7F0",
"5.	c #5AADEE",
"6.	c #47A1E9",
"7.	c #4092D4",
"8.	c #3477AE",
"9.	c #275883",
"0.	c #214C71",
"a.	c #275985",
"b.	c #3A82C6",
"c.	c #68AEF0",
"d.	c #8FC2F2",
"e.	c #9BC8F3",
"f.	c #C3DEF7",
"g.	c #0F2233",
"h.	c #20476C",
"i.	c #2F69A0",
"j.	c #367BBB",
"k.	c #3373AF",
"l.	c #6BB5F0",
"m.	c #55A9EC",
"n.	c #459CE5",
"o.	c #3F90D4",
"p.	c #387FBC",
"q.	c #3272AA",
"r.	c #3578B4",
"s.	c #4194E1",
"t.	c #6AAFF0",
"u.	c #90C3F2",
"v.	c #A3CDF4",
"w.	c #D3E6F9",
"x.	c #484E53",
"y.	c #112539",
"z.	c #224D75",
"A.	c #316EA8",
"B.	c #367DBD",
"C.	c #6BB4F0",
"D.	c #54A7EC",
"E.	c #459BE6",
"F.	c #4194DD",
"G.	c #3F8DD4",
"H.	c #3F8FD8",
"I.	c #4C9FEE",
"J.	c #6BAFEF",
"K.	c #A6CEF4",
"L.	c #686B6F",
"M.	c #09141E",
"N.	c #17344F",
"O.	c #285B8B",
"P.	c #377DBF",
"Q.	c #6AB2F0",
"R.	c #54A6EC",
"S.	c #459CE9",
"T.	c #4499E7",
"U.	c #449AE9",
"V.	c #4EA0ED",
"W.	c #66ACEE",
"X.	c #82BBF0",
"Y.	c #96C5F2",
"Z.	c #D7E9F9",
"`.	c #060D14",
" +	c #11263A",
".+	c #214B73",
"++	c #2F6BA2",
"@+	c #377FC0",
"#+	c #387FC0",
"$+	c #3271AC",
"%+	c #6AB1F0",
"&+	c #54A5EE",
"*+	c #459CED",
"=+	c #459BEC",
"-+	c #489CEB",
";+	c #56A4EB",
">+	c #6CAFED",
",+	c #7FB9EF",
"'+	c #9FCAF2",
")+	c #34393E",
"!+	c #050B11",
"~+	c #0F2133",
"{+	c #1E4568",
"]+	c #2C6498",
"^+	c #3479B8",
"/+	c #3880C1",
"(+	c #3170AA",
"_+	c #69AFF0",
":+	c #54A3ED",
"<+	c #449AEB",
"[+	c #449AEA",
"}+	c #489BE9",
"|+	c #55A2E9",
"1+	c #66ABEA",
"2+	c #74B2EB",
"3+	c #B3D4F4",
"4+	c #5B6269",
"5+	c #0E2031",
"6+	c #1D4163",
"7+	c #2C6295",
"8+	c #3477B4",
"9+	c #3982C5",
"0+	c #3A85CB",
"a+	c #387FBF",
"b+	c #316FA9",
"c+	c #68ADEE",
"d+	c #53A1EB",
"e+	c #4499E8",
"f+	c #4398E7",
"g+	c #479AE6",
"h+	c #54A0E7",
"i+	c #62A7E8",
"j+	c #69ABE8",
"k+	c #A9CEF1",
"l+	c #0B1926",
"m+	c #0F2234",
"n+	c #1B3E5F",
"o+	c #2A5F91",
"p+	c #3578B6",
"q+	c #3B86CC",
"r+	c #67ACEC",
"s+	c #529FE8",
"t+	c #4297E5",
"u+	c #4296E4",
"v+	c #4798E4",
"w+	c #539EE5",
"x+	c #60A6E6",
"y+	c #68A9E6",
"z+	c #8EAECC",
"A+	c #153049",
"B+	c #1C4061",
"C+	c #285A88",
"D+	c #3B85CB",
"E+	c #3A85CA",
"F+	c #377EBF",
"G+	c #306EA7",
"H+	c #66A9E8",
"I+	c #519DE5",
"J+	c #4295E2",
"K+	c #4897E1",
"L+	c #569FE3",
"M+	c #66A8E5",
"N+	c #74AFE6",
"O+	c #76AFE5",
"P+	c #62A3E1",
"Q+	c #3E8BD3",
"R+	c #2A6092",
"S+	c #275887",
"T+	c #2F6BA3",
"U+	c #377DBD",
"V+	c #3A84C9",
"W+	c #367CBE",
"X+	c #306DA5",
"Y+	c #66A8E6",
"Z+	c #509BE2",
"`+	c #4193DF",
" @	c #4092DE",
".@	c #4796DE",
"+@	c #599FE1",
"@@	c #6BA9E3",
"#@	c #7CB3E6",
"$@	c #D9E8F7",
"%@	c #265784",
"&@	c #387FC1",
"*@	c #2F6BA4",
"=@	c #65A6E4",
"-@	c #4F9AE0",
";@	c #4091DC",
">@	c #4090DB",
",@	c #4793DC",
"'@	c #569DDE",
")@	c #66A5E0",
"!@	c #D9E9F7",
"~@	c #204A70",
"{@	c #275987",
"]@	c #3981C4",
"^@	c #357AB9",
"/@	c #2F6AA2",
"(@	c #64A5E0",
"_@	c #4E97DC",
":@	c #3F8ED8",
"<@	c #4692D8",
"[@	c #5299DB",
"}@	c #5C9FDC",
"|@	c #D2E4F5",
"1@	c #1B3C5C",
"2@	c #23517B",
"3@	c #2D679D",
"4@	c #3A84C8",
"5@	c #3880C2",
"6@	c #3578B8",
"7@	c #2E69A0",
"8@	c #4B94D8",
"9@	c #3980C3",
"0@	c #3E83C4",
"a@	c #4588C7",
"b@	c #4689C6",
"c@	c #3D83C3",
"d@	c #224F79",
"e@	c #132B42",
"f@	c #1F466B",
"g@	c #295D8D",
"h@	c #316FAA",
"i@	c #3477B6",
"j@	c #3375B2",
"k@	c #2A6093",
"l@	c #2D679C",
"m@	c #2F699D",
"n@	c #326A9D",
"o@	c #2D649A",
"p@	c #295B8B",
"q@	c #16334D",
"r@	c #102437",
"s@	c #0D1E2E",
"t@	c #11283D",
"u@	c #1B3D5D",
"v@	c #285A8A",
"w@	c #295D8E",
"x@	c #004080",
". . . . . . . . . . . . . . . . . . . . . . . . ",
". + + + + @ # @ $ % & * = - ; > , ' ) ! ~ { ] . ",
". ^ / ( _ : < [ } | 1 1 2 3 4 5 6 7 8 9 0 a b . ",
". = c d e : f g 1 1 1 1 1 1 1 h i j k l m n o . ",
". p q r s t u 1 1 ^ ^ ^ 1 1 1 1 v w x y z A B . ",
". C D E F G 1 1 ~ H I J K 1 1 1 1 L M N b O P . ",
". Q R S T U 1 ^ H V W X Y Z 1 1 1 ~ `  ...b +.. ",
". @.#.$.%.^ ^ ^ H &.*.=.-.;.1 1 1 ~ >.,.'.).=.. ",
". !.~.{.].^./.(._.*.:.<.[.}.1 1 ^ H |.1.2.3.Y . ",
". 4.5.6.7.8.9.0.a.b.c.d.e.f.1 1 ^ H g.h.i.j.k.. ",
". l.m.n.o.p.q.r.s.t.u.v.w.1 1 ^ H x.y.z.A.B.k.. ",
". C.D.E.F.G.H.I.J.Z K.+ 1 1 ^ H L.M.N.O.B P.N . ",
". Q.R.S.T.U.V.W.X.Y.Z.1 1 ^ H L.`. +.+++@+#+$+. ",
". %+&+*+=+-+;+>+,+'+1 1 ^ H )+!+~+{+]+^+y /+(+. ",
". _+:+<+[+}+|+1+2+3+1 ^ ~ 4+`.5+6+7+8+9+0+a+b+. ",
". c+d+e+f+g+h+i+j+k+^ ^ ~ l+m+n+o+p+9+q+A @+A.. ",
". r+s+t+u+v+w+x+y+C p z+H A+B+C+k.9+q+D+E+F+G+. ",
". H+I+J+s.K+L+M+N+O+P+Q+R+` S+T+U+q+D+A V+W+X+. ",
". Y+Z+`+ @.@+@@@#@~ $@^ V+%@R+(+&@D+D+V+O j.*@. ",
". =@-@;@>@,@'@)@~ !@1 1 ^ ~@{@T+P.E+V+O ]@^@/@. ",
". (@_@:@:@<@[@}@~ |@1 ^ p 1@2@3@j.4@O ]@5@6@7@. ",
". 8@q+9@9@0@a@b@c@c@p p d@e@f@g@h@i@o j@Y X+k@. ",
". ] '.l@l@m@n@o@p@1.q@r@s@t@u@d@v@o+o+] w@S+x@. ",
". . . . . . . . . . . . . . . . . . . . . . . . "};
