/* XPM */
static char * help_xpm[] = {
"25 25 4 1",
" 	c None",
".	c #FFFFFF",
"+	c #BFBFBF",
"@	c #D4D4D4",
"                         ",
"                         ",
"                         ",
"                         ",
"                         ",
"                         ",
"          ....+          ",
"         ......+         ",
"        ...   ..         ",
"        ..    ..         ",
"        @@   ...         ",
"            ...          ",
"           ...           ",
"           ..            ",
"           ..            ",
"           @@            ",
"           ++            ",
"           ..            ",
"          @..@           ",
"           ..            ",
"                         ",
"                         ",
"                         ",
"                         ",
"                         "};
