/* XPM */
static char * ortho_xpm[] = {
"25 25 4 1",
" 	c None",
".	c #7F7F7F",
"+	c #E9E9E9",
"@	c #949494",
"                         ",
"                         ",
"                         ",
"                         ",
"                         ",
"    .................    ",
"    .+++++++++.@@@@@.    ",
"    .+++++++++.@@@@@.    ",
"    .+++++++++.@@@@@.    ",
"    .+++++++++.@@@@@.    ",
"    .+++++++++.@@@@@.    ",
"    .+++++++++.@@@@@.    ",
"    .+++++++++.@@@@@.    ",
"    .+++++++++.@@@@@.    ",
"    .+++++++++.@@@@@.    ",
"    .+++++++++.@@@@@.    ",
"    .+++++++++.@@@@@.    ",
"    .................    ",
"                         ",
"                         ",
"                         ",
"                         ",
"                         ",
"                         ",
"                         "};
