/* XPM */
static char * seek_xpm[] = {
"25 25 7 1",
" 	c None",
".	c #949494",
"+	c #808080",
"@	c #6A6A6A",
"#	c #D4D4D4",
"$	c #E9E9E9",
"%	c #FFFFFF",
"                         ",
"                         ",
"                         ",
"                  ..     ",
"                .....    ",
"              ......+    ",
"             ..@...+@    ",
"       ......@@...+@     ",
"###########...+.++@      ",
"$$$$$########.+++@       ",
"$$$$$##%%##$$$.+@        ",
"%%%%###%%$$$$$.+@        ",
"%%%%####$$$$$$.@         ",
"%%%%###$$$$$$$.@         ",
"%%%%###$$$$$$$.          ",
"%%%%%###$$$$$$.          ",
"%%%%%######$##           ",
"%%%%%%%#####$#           ",
"%%%%%%%%%%$$$            ",
"%%%%%%%%%%$$#            ",
"%%%%%%%%%%$$#            ",
"%%%%%%%%%$$#             ",
"%%%%%%%%%$$#             ",
"%%%%%%%%%$$#             ",
"                         "};
