/* XPM */
static char * set_home_xpm[] = {
"24 24 9 1",
" 	c None",
".	c #000000",
"+	c #2894FF",
"@	c #4FA7FF",
"#	c #62B0FF",
"$	c #0077EE",
"%	c #BDDEFF",
"&	c #97CBFF",
"*	c #399CFF",
"   .....................",
"  .++.@@@@@@@@@@@@@@@@@.",
" .+++.################@.",
".++++.################@.",
"......################@.",
".$$$$$################@.",
".$$$$@#####%%#########@.",
".+@@@######%&#########@.",
".*######%%%%&&%%######@.",
".*#####%#%######%#####@.",
".+####%###%######&####@.",
".+*##&&####%######%###@.",
".+*#%#######%######%##@.",
".+*%%%######%%%&&%%%%#@.",
".++*#%######%#####&###@.",
".++*#&######%#####%###@.",
".$++*%*#####%#####%###@.",
".+++*%**####%#####%###@.",
".$+$+%%%%%&&%%%&&%%###@.",
".+$+++++*#############@.",
".$+$+$+++**###########@.",
".+$+$++++++***########@.",
".$+$+$+$+++++++++++****.",
"........................"};
