/* XPM */
static char * set_home_xpm[] = {
"25 25 3 1",
" 	c None",
".	c #808080",
"+	c #FFFFFF",
"                         ",
"         ..    ...       ",
"        .....  ...       ",
"       ....... ...       ",
"      ............       ",
"     .............       ",
"    ..............       ",
"   ................      ",
"  ...................    ",
" .....................   ",
"    ................     ",
"    ..........+++++.     ",
"    ..........++++..     ",
"    ..........++++..     ",
"    ..........+++++.     ",
"    ..........+..+++     ",
"    ..............+++    ",
"    ...............+++   ",
"    ................+++  ",
"                     ++  ",
"                         ",
"                         ",
"                         ",
"                         ",
"                         "};
