/* XPM */
static char * view_xpm[] = {
"25 25 6 1",
" 	c None",
".	c #BFBFBF",
"+	c #C0C0C0",
"@	c #E9E9E9",
"#	c #FFFFFF",
"$	c #D4D4D4",
"                         ",
"          .+             ",
"          @+.+           ",
"        .+#+#+           ",
"        @+#+#+           ",
"        #+#+#+.          ",
"        #+#+#+$.         ",
"        #+#+#+#+         ",
"        #+#+#+#+         ",
"        #+#+#+#+         ",
"        #+++++@$         ",
"        #######$         ",
"    $$  #######$         ",
"    $#$+#######@         ",
"     ##+#######@         ",
"     +##++#####@         ",
"      +###$####@         ",
"       ########$         ",
"       +######@$         ",
"        $#####$.         ",
"        +###.$$+         ",
"        ++++ +++         ",
"                         ",
"                         ",
"                         "};
