/* XPM */
static char * view_all_xpm[] = {
"24 24 26 1",
" 	c None",
".	c #000000",
"+	c #ACAC00",
"@	c #D9D900",
"#	c #FFFF73",
"$	c #EAEA00",
"%	c #6A6A35",
"&	c #004080",
"*	c #808080",
"=	c #C0C0C0",
"-	c #0067CE",
";	c #4B4B4B",
">	c #FFFFFF",
",	c #B8B8B8",
"'	c #CCCCCC",
")	c #1188FF",
"!	c #D9D9D9",
"~	c #0077EE",
"{	c #7DBEFF",
"]	c #399CFF",
"^	c #158AFF",
"/	c #B5DAFF",
"(	c #E7E7E7",
"_	c #808040",
":	c #95954A",
"<	c #919100",
"                        ",
"    ................... ",
"   .+.@@@@@@@@@@@@@@@@. ",
"  .++.###############@. ",
" .....###############@. ",
" .++++#$@+++++@@#####@. ",
" .++#$@%........%+###@. ",
" .@$@%.&&&&.*......%+@. ",
" .+%.*&&&&.*=*..=.&&%+. ",
" ..**&--&;*=>=*....&&.. ",
" .*,,&---;.*=*.**..--&. ",
" .,''&---;..*.**==.)--. ",
" *'!!~---;....*=>>.{]^* ",
" ,'!>~--~-.....=>>>/{], ",
" ,'(>{&~)]-......>>>>!' ",
" *'!(>&-)]]-;..;-{>>>(, ",
" ._''!{&-)]]]]]]]]/>('* ",
" .+_'''{&~-))]]])/(('_. ",
" .++__'''{~~~---/(',_@. ",
" .++++:_,'''!!''':_:@@. ",
" .@+++++<::____::@@##@. ",
" .@@@++++++++++@@@@@@@. ",
" ...................... ",
"                        "};
