/* XPM */
static char * view_xpm[] = {
"24 24 11 1",
" 	c None",
".	c #000000",
"+	c #A0A0A0",
"@	c #C0C0C0",
"#	c #464646",
"$	c #E2E2E2",
"%	c #5E5E5E",
"&	c #FFFFFF",
"*	c #808080",
"=	c #939393",
"-	c #9B9B9B",
"                        ",
"           ..           ",
"          .+@...        ",
"        ..#+$#+@.       ",
"       .+@%@&%+$#.      ",
"       .+$%@&%@&%+.     ",
"       .+&*@&*@&%+@.    ",
"       .+&*@&*@&*+$.    ",
"       .@$=@$=@$*@$.    ",
"       .@$-@$-@$=@$.    ",
"       .@$+@$+@$-@$.    ",
"       .@&@&@@&@+&$.    ",
"   ..  .@&&&&&&&&&&.    ",
"  .@$. .@&$&&$&&$&&.    ",
"  .+&$..@&+$&+&$+&&.    ",
"   .@&$*@$$+&+&+$&&.    ",
"    .@&$@$&+&+&+&&&.    ",
"     .@$$$$$&$&$&&&.    ",
"      .@@$$$&&&&&$$.    ",
"       *++@@@@@&&$@*    ",
"        .*+++@@@@*.     ",
"       .@$$$@.@$$$@.    ",
"       .....# #.....    ",
"                        "};
