/* XPM */
static char * home_xpm[] = {
"25 25 6 1",
" 	c None",
".	c #BFBFBF",
"+	c #FFFFFF",
"@	c #D4D4D4",
"#	c #949494",
"$	c #7F7F7F",
"                         ",
"         ...   ++.       ",
"        .@++@  ++@       ",
"       .@+++++@++@       ",
"      .@+++++++++@       ",
"     .@+++++++++++       ",
"    .@++++++++++++       ",
"   .@+++++++++++++@.     ",
"  .@++++++++++++++++.    ",
" .@++++++++++++++++++.   ",
"    ################     ",
"    @@@@@@@@@@@@@@@@     ",
"    @@@@@@@@@@@@@@@@     ",
"    @@@@####@@@$$@@@     ",
"    @@@@####@@@$$@@@     ",
"    @@@@####@@@$$@@@     ",
"    @@@@####@@@@@@@@     ",
"    @@@@####@@@@@@@@     ",
"    @@@@####@@@@@@@@     ",
"                         ",
"                         ",
"                         ",
"                         ",
"                         ",
"                         "};
