/* XPM */
static char * perspective_xpm[] = {
"25 25 5 1",
" 	c None",
".	c #949494",
"+	c #7F7F7F",
"@	c #D4D4D4",
"#	c #E9E9E9",
"           .+            ",
"          +@@+           ",
"        .+###@+          ",
"       .@#####@+         ",
"      +@#######@+        ",
"    .+@#########@+       ",
"   .+@###########@+.     ",
"  .+.#############@+.    ",
"   +@.############.+.    ",
"    .@.##########..+     ",
"    +@@.########...+     ",
"     .@@.######....+     ",
"     +@@@.####....+      ",
"      .@@@.##.....+      ",
"      +@@@@.+....+       ",
"       +@@@@+...+        ",
"       +@@@@+...+        ",
"        +@@@+..+         ",
"        +@@@+..+         ",
"         +@@+.+          ",
"         +@@+.+          ",
"          +@++           ",
"          .++.           ",
"                         ",
"                         "};
