/* XPM */
static char * pick_xpm[] = {
"25 25 4 1",
" 	c None",
".	c #D4D4D4",
"+	c #FFFFFF",
"@	c #BFBFBF",
"                         ",
"                         ",
"                         ",
"                         ",
"                         ",
"                         ",
"     .......             ",
"     .++++++.            ",
"     .+++++++.           ",
"     .++++@              ",
"     .+++++              ",
"     .++@+++             ",
"     .++  +++            ",
"      .+   +++           ",
"       .    +++          ",
"             +++         ",
"              +++        ",
"               +++@      ",
"                +++      ",
"                @+.      ",
"                         ",
"                         ",
"                         ",
"                         ",
"                         "};
