/* XPM */
static char * view_all_xpm[] = {
"25 25 9 1",
" 	c None",
".	c #7F7F7F",
"+	c #6A6A6A",
"@	c #BFBFBF",
"#	c #808080",
"$	c #555555",
"%	c #D4D4D4",
"&	c #FFFFFF",
"*	c #AAAAAA",
"                         ",
"                         ",
"        .+++++..         ",
"   ..++++++.... ....     ",
"  .++++++...        ..   ",
"  +++++....              ",
" .+++++..........        ",
" .++++....@#$$$$$.       ",
".++++...@@%#$$$$$$..     ",
".+++...@%&##@&$$$##@.    ",
".++...@%&&**#$$$$#**%..  ",
".+..+@%%&&@*#$$$&&@@&%+. ",
"...++@%&&&@@*#$$&&&@&%@+ ",
" ..+@@%%&&&@@*##*&&&%@.  ",
" ...++@@@%%%@@@@@@%%..   ",
"  .......@@@@@@@@@..     ",
"   ...............       ",
"    .....                ",
"      ....               ",
"        ....             ",
"                         ",
"                         ",
"                         ",
"                         ",
"                         "};
